<?xml version="1.0" encoding="utf-8"?>
<!-- Generator: Adobe Illustrator 17.1.0, SVG Export Plug-In . SVG Version: 6.00 Build 0)  -->
<!DOCTYPE svg PUBLIC "-//W3C//DTD SVG 1.1//EN" "http://www.w3.org/Graphics/SVG/1.1/DTD/svg11.dtd">
<svg version="1.1" id="Layer_1" xmlns="http://www.w3.org/2000/svg" xmlns:xlink="http://www.w3.org/1999/xlink" x="0px" y="0px"
	 viewBox="0 0 191.557 188.168" enable-background="new 0 0 191.557 188.168" xml:space="preserve">
<path fill="none" stroke="#000000" stroke-miterlimit="10" d="M98.006,0.571c33.95-1.835,88.039,32.168,92.667,84
	c3.333,37.333-14.063,106.004-89.365,103.002S-1.994,135.237,0.673,100.571S24.006,4.571,98.006,0.571z"/>
<path d="M112.339,71.237c3.24,20.736,21.5,32,36.5,28.5s17.5-21,12.5-38s-15.5-32.5-31-29.5S109.839,55.237,112.339,71.237z"/>
<path d="M79.839,69.237c-1.459,17.504-20,32.263-35,31.131s-22-11.631-19-31.131s12.818-32,26.659-32S81.839,45.237,79.839,69.237z"
	/>
<path d="M99.317,89.571c0,0-1.593,6.917,2.689,13.417c4.282,6.5,12.833,4.5,7.083-5S99.317,89.571,99.317,89.571z"/>
<path d="M91.914,89.571c0,0,1.593,6.917-2.689,13.417c-4.282,6.5-12.833,4.5-7.083-5S91.914,89.571,91.914,89.571z"/>
<g>
	<path d="M16.109,122.766c0,0,5.609,48.867,86.313,46.201c79.29-2.619,72.43-55.895,72.43-55.895s2.431,51.615-74.394,52.506
		C22.117,166.487,16.109,122.766,16.109,122.766z"/>
	<path d="M24.016,139.981c0,0-1.51-4.181,1.204-5.953C25.221,134.028,23.766,137.368,24.016,139.981z"/>
	<path d="M23.822,139.867c0,0-2.899,1.205-1.442,4.226C22.38,144.094,22.31,141.844,23.822,139.867z"/>
	<path d="M29.727,146.381c0,0-3.054-4.622,0.371-6.839C30.098,139.542,28.863,142.7,29.727,146.381z"/>
	<path d="M29.681,146.714c0,0-1.884,2.469-1.666,5.907C28.015,152.621,26.089,148.425,29.681,146.714z"/>
	<path d="M37.255,145.214c0,0-0.879,4.393-0.242,6.847C37.013,152.061,34.506,148.842,37.255,145.214z"/>
	<path d="M37.255,152.758c0,0-2.787,3.726-1.818,7.271C35.437,160.028,32.548,155.634,37.255,152.758z"/>
	<path d="M44.859,156.908c0,0-0.969-5.392,0.757-7.543C45.616,149.365,41.673,151.634,44.859,156.908z"/>
	<path d="M45.222,157.635c0,0-2.118,4.574-1.195,9.24C44.027,166.875,40.881,161.467,45.222,157.635z"/>
	<path d="M53.19,152.606c0,0-1.484,5.726,0.576,8.18C53.765,160.786,49.548,158.425,53.19,152.606z"/>
	<path d="M53.765,161.028c0,0-2.575,4.999-1.939,9.785C51.827,170.813,48.881,165.3,53.765,161.028z"/>
	<path d="M65.338,163.785c0,0-1.454-4.211-0.242-7.301C65.096,156.484,61.589,159.665,65.338,163.785z"/>
	<path d="M65.359,164.391c0,0-3.454,6.544-0.969,12.845C64.39,177.236,58.964,170.813,65.359,164.391z"/>
	<path d="M76.153,165.921c0,0-3.211-2.984-1.878-10.073C74.275,155.848,70.048,162.255,76.153,165.921z"/>
	<path d="M75.997,166.269c0,0-2.268,9.331,0.156,14.057C76.153,180.326,70.464,173.297,75.997,166.269z"/>
	<path d="M86.938,154.878c0,0-1.757,6.968,1.03,12.602C87.968,167.481,89.256,159.05,86.938,154.878z"/>
	<path d="M87.953,166.795c0,0,1.355,4.828-0.194,12.325C87.758,179.12,85.673,172.619,87.953,166.795z"/>
	<path d="M102.176,167.481c0,0-1.409-12.315-3.681-15.632C98.495,151.849,104.381,156.134,102.176,167.481z"/>
	<path d="M102.176,167.481c0,0,0.09,8.367-0.773,10.276C101.403,177.757,105.423,173.297,102.176,167.481z"/>
	<path d="M112.991,166.795c0,0,1.727-8.251,1.091-13.042C114.082,153.753,117.881,158.998,112.991,166.795z"/>
	<path d="M112.882,166.596c0,0,1.324,9.718,0.469,12.687C113.351,179.283,116.881,172.619,112.882,166.596z"/>
	<path d="M127.987,153.273c0,0,3.352,6.392-1.818,11.451C126.169,164.724,128.669,158.68,127.987,153.273z"/>
	<path d="M125.609,165.04c0,0,4.166,8.444,3.164,11.85C128.773,176.89,131.714,169.759,125.609,165.04z"/>
	<path d="M138.62,151.955c0,0,0.65,6.264-0.682,9.134C137.939,161.089,141.631,157.55,138.62,151.955z"/>
	<path d="M137.348,161.861c0,0,4.589,4.934,4.544,8.816C141.892,170.677,143.673,164.55,137.348,161.861z"/>
	<path d="M147.3,148.865c0,0,1.818,5.044,0.591,7.998C147.89,156.863,151.214,152.455,147.3,148.865z"/>
	<path d="M147.342,157.768c0,0,4.101,3.602,3.324,7.811C150.666,165.578,153.173,159.384,147.342,157.768z"/>
	<path d="M154.888,143.957c0,0,1.999,3.363,0.773,7.452C155.661,151.41,159.136,146.925,154.888,143.957z"/>
	<path d="M155.761,152.455c0,0,3.263,2.817,2.945,6.226C158.706,158.68,160.796,153.342,155.761,152.455z"/>
	<path d="M160.796,138.05c0,0,1.909,3.408,1.772,7.043s0.007,0.182,0.007,0.182S164.631,140.049,160.796,138.05z"/>
	<path d="M163.219,144.975c0,0,2.468,2.216,2.287,4.774C165.507,149.75,167.214,145.842,163.219,144.975z"/>
	<path d="M166.022,130.188c0,0,2.545,2.318,2.499,6.634C168.521,136.823,170.933,132.092,166.022,130.188z"/>
	<path d="M168.885,138.05c0,0,1.862,1.818,1.908,3.999C170.793,142.049,172.214,138.55,168.885,138.05z"/>
	<path d="M169.657,123.508c0,0,3.381,2.077,3.454,3.635C173.111,127.144,173.839,123.508,169.657,123.508z"/>
	<path d="M173.159,126.935c0,0,1.909,1.136,2.045,2.454C175.204,129.389,176.24,126.675,173.159,126.935z"/>
</g>
</svg>
